<?xml version="1.0" encoding="UTF-8"?>
<!DOCTYPE svg PUBLIC "-//W3C//DTD SVG 1.1//EN" "http://www.w3.org/Graphics/SVG/1.1/DTD/svg11.dtd">
<svg xmlns="http://www.w3.org/2000/svg" version="1.1" width="64px" height="64px" style="shape-rendering:geometricPrecision; text-rendering:geometricPrecision; image-rendering:optimizeQuality; fill-rule:evenodd; clip-rule:evenodd" xmlns:xlink="http://www.w3.org/1999/xlink">
<g><path style="opacity:1" fill="#17223f" d="M 31.5,-0.5 C 31.8333,-0.5 32.1667,-0.5 32.5,-0.5C 34.9052,0.768202 37.5718,1.43487 40.5,1.5C 38.0051,9.98457 41.0051,13.9846 49.5,13.5C 49.5,24.5 49.5,35.5 49.5,46.5C 46.5198,46.3797 43.6865,45.713 41,44.5C 40.5017,47.8168 40.335,51.1501 40.5,54.5C 37.5198,54.3797 34.6865,53.713 32,52.5C 31.5017,55.8168 31.335,59.1501 31.5,62.5C 28.5198,62.3797 25.6865,61.713 23,60.5C 22.5017,57.1832 22.335,53.8499 22.5,50.5C 19.5198,50.3797 16.6865,49.713 14,48.5C 13.3333,37.5 13.3333,26.5 14,15.5C 16.6865,16.713 19.5198,17.3797 22.5,17.5C 22.335,14.1501 22.5017,10.8168 23,7.5C 25.6865,8.71305 28.5198,9.37972 31.5,9.5C 31.5,6.16667 31.5,2.83333 31.5,-0.5 Z"/></g>
<g><path style="opacity:1" fill="#fcfdfc" d="M 20.5,24.5 C 24.571,25.1844 28.571,26.1844 32.5,27.5C 33.8333,33.8333 33.8333,40.1667 32.5,46.5C 28.571,45.1844 24.571,44.1844 20.5,43.5C 20.5,37.1667 20.5,30.8333 20.5,24.5 Z"/></g>
</svg>
