<?xml version="1.0" encoding="UTF-8"?>
<!DOCTYPE svg PUBLIC "-//W3C//DTD SVG 1.1//EN" "http://www.w3.org/Graphics/SVG/1.1/DTD/svg11.dtd">
<svg xmlns="http://www.w3.org/2000/svg" version="1.1" width="64px" height="64px" style="shape-rendering:geometricPrecision; text-rendering:geometricPrecision; image-rendering:optimizeQuality; fill-rule:evenodd; clip-rule:evenodd" xmlns:xlink="http://www.w3.org/1999/xlink">
<g><path style="opacity:0.992" fill="#049393" d="M 63.5,24.5 C 63.5,25.5 63.5,26.5 63.5,27.5C 53.4219,37.0766 43.4219,46.9099 33.5,57C 32.1667,57.6667 30.8333,57.6667 29.5,57C 19.5513,46.8827 9.55126,37.0493 -0.5,27.5C -0.5,26.5 -0.5,25.5 -0.5,24.5C 3.6005,18.4834 7.6005,12.3168 11.5,6C 25.1788,5.16726 38.8455,5.33393 52.5,6.5C 56.1921,12.5638 59.8588,18.5638 63.5,24.5 Z"/></g>
<g><path style="opacity:1" fill="#fcfdfd" d="M 17.5,13.5 C 26.8333,13.5 36.1667,13.5 45.5,13.5C 45.5,15.1667 45.5,16.8333 45.5,18.5C 42.1667,18.5 38.8333,18.5 35.5,18.5C 35.5,19.8333 35.5,21.1667 35.5,22.5C 40.109,22.3116 44.109,23.645 47.5,26.5C 47.1667,26.8333 46.8333,27.1667 46.5,27.5C 42.9722,26.0787 39.3055,25.412 35.5,25.5C 35.5,26.5 35.5,27.5 35.5,28.5C 32.8333,28.5 30.1667,28.5 27.5,28.5C 27.5,27.5 27.5,26.5 27.5,25.5C 23.6945,25.412 20.0278,26.0787 16.5,27.5C 15.4291,25.6745 16.0958,24.5079 18.5,24C 21.4318,23.0467 24.4318,22.5467 27.5,22.5C 27.5,21.1667 27.5,19.8333 27.5,18.5C 24.1667,18.5 20.8333,18.5 17.5,18.5C 17.5,16.8333 17.5,15.1667 17.5,13.5 Z"/></g>
<g><path style="opacity:1" fill="#f9fcfc" d="M 15.5,28.5 C 26.0004,32.4763 36.5004,32.4763 47,28.5C 47.4502,31.0638 46.2836,32.5638 43.5,33C 40.854,33.4974 38.1873,33.6641 35.5,33.5C 35.5,36.5 35.5,39.5 35.5,42.5C 32.8333,42.5 30.1667,42.5 27.5,42.5C 27.5,39.5 27.5,36.5 27.5,33.5C 24.059,33.6989 20.7256,33.1989 17.5,32C 16.0267,31.2904 15.3601,30.1238 15.5,28.5 Z"/></g>
</svg>
